<?xml version="1.0" encoding="utf-8"?>
<!-- Generator: Adobe Illustrator 19.2.0, SVG Export Plug-In . SVG Version: 6.00 Build 0)  -->
<svg version="1.1" id="Layer_1" xmlns="http://www.w3.org/2000/svg" xmlns:xlink="http://www.w3.org/1999/xlink" x="0px" y="0px"
	 viewBox="0 0 512 512" style="enable-background:new 0 0 512 512;" xml:space="preserve">
<style type="text/css">
	.st0{opacity:0.1;}
	.st1{fill:#FFFFFF;}
	.st2{fill:#7F184C;}
	.st3{fill:#C8C8C8;}
</style>
<path class="st0" d="M308.7,465.7c-135.9,0-246-110.1-246-246c0-72.6,31.4-137.8,81.4-182.8C64.5,77.6,10,160.4,10,256
	c0,135.9,110.1,246,246,246c63.3,0,121-23.9,164.5-63.1C387,456,349,465.7,308.7,465.7z"/>
<g>
	<circle class="st1" cx="213.2" cy="179.9" r="30"/>
	<circle class="st1" cx="382.2" cy="179.9" r="30"/>
</g>
<g class="st0">
	<path d="M150.3,240.8c-18.3,0-33.1,14.8-33.1,33.1h66.2C183.4,255.6,168.6,240.8,150.3,240.8z"/>
	<path d="M438.8,236.3c-18.3,0-33.1,14.8-33.1,33.1h66.2C471.9,251.1,457.1,236.3,438.8,236.3z"/>
</g>
<path class="st2" d="M357.6,390.1c-3.5,0-6.9-1.9-8.8-5.1c-9.4-16.8-27.2-27.3-46.4-27.3c-18.8,0-36.8,10.6-47,27.6
	c-2.8,4.7-9,6.3-13.7,3.4c-4.7-2.8-6.3-9-3.4-13.7c13.8-23,38.4-37.3,64.1-37.3c26.5,0,51,14.4,63.9,37.6c2.7,4.8,1,10.9-3.9,13.6
	C360.9,389.7,359.2,390.1,357.6,390.1z"/>
<path class="st3" d="M375.2,29.4c-4.9-2.6-10.9-0.7-13.5,4.2c-2.6,4.9-0.7,10.9,4.2,13.5C443.7,88.1,492,168.2,492,256
	c0,130.1-105.9,236-236,236S20,386.1,20,256S125.9,20,256,20c5.5,0,10-4.5,10-10s-4.5-10-10-10C114.8,0,0,114.8,0,256
	s114.8,256,256,256s256-114.8,256-256C512,160.7,459.6,73.9,375.2,29.4z"/>
<path class="st3" d="M253.2,179.9c0-22.1-18-40-40-40s-40,18-40,40s18,40,40,40S253.2,201.9,253.2,179.9z M213.2,199.9
	c-11,0-20-9-20-20s9-20,20-20s20,9,20,20S224.2,199.9,213.2,199.9z"/>
<path class="st3" d="M382.2,219.9c22.1,0,40-18,40-40s-18-40-40-40s-40,18-40,40S360.1,219.9,382.2,219.9z M382.2,159.8
	c11,0,20,9,20,20s-9,20-20,20s-20-9-20-20S371.1,159.8,382.2,159.8z"/>
<path class="st3" d="M238.3,375c-2.8,4.7-1.3,10.9,3.4,13.7s10.9,1.3,13.7-3.4c10.2-17,28.2-27.6,47-27.6c19.3,0,37,10.5,46.4,27.3
	c1.8,3.3,5.2,5.1,8.8,5.1c1.6,0,3.3-0.4,4.9-1.3c4.8-2.7,6.6-8.8,3.9-13.6c-12.9-23.2-37.4-37.6-63.9-37.6
	C276.6,337.7,252.1,351.9,238.3,375z"/>
<circle class="st3" cx="332.9" cy="23.4" r="10"/>
</svg>
