<?xml version="1.0" encoding="utf-8"?>
<!-- Generator: Adobe Illustrator 19.2.0, SVG Export Plug-In . SVG Version: 6.00 Build 0)  -->
<svg version="1.1" id="Capa_1" xmlns="http://www.w3.org/2000/svg" xmlns:xlink="http://www.w3.org/1999/xlink" x="0px" y="0px"
	 viewBox="0 0 465 465" style="enable-background:new 0 0 465 465;" xml:space="preserve">
<style type="text/css">
	.st0{fill:#C8C8C8;}
</style>
<g>
	<path class="st0" d="M359,184.3h-43.6c-3.2,0-5.8,2.6-5.8,5.8c0,3.2,2.6,5.8,5.8,5.8H359c33.6,0,60.9,27.3,60.9,60.9v105.7H269.4
		V256.8c0-25.5-13.3-48-33.2-60.9h32.9c3.2,0,5.8-2.6,5.8-5.8s-2.6-5.8-5.8-5.8H197c-40,0-72.5,32.5-72.5,72.5v111.5
		c0,3.2,2.6,5.8,5.8,5.8h127.6v55.2c0,3.2,2.6,5.8,5.8,5.8s5.8-2.6,5.8-5.8V374h17v55.2c0,3.2,2.6,5.8,5.8,5.8
		c3.2,0,5.8-2.6,5.8-5.8V374h127.6c3.2,0,5.8-2.6,5.8-5.8V256.8C431.5,216.8,398.9,184.3,359,184.3z M136,256.8
		c0-33.6,27.3-60.9,60.9-60.9s60.9,27.3,60.9,60.9v105.7H136V256.8z"/>
	<path class="st0" d="M292.3,318.3c3.2,0,5.8-2.6,5.8-5.8V155.7h52.2c7,0,12.7-5.7,12.7-12.7v-30.9c0-7-5.7-12.7-12.7-12.7h-58
		c-3.2,0-5.8,2.6-5.8,5.8v207.3C286.5,315.7,289.1,318.3,292.3,318.3z M351.4,112.1V143c0,0.6-0.5,1.2-1.2,1.2H298V111h52.2
		C350.9,111,351.4,111.5,351.4,112.1z"/>
	<path class="st0" d="M197,222.8c-3.2,0-5.8,2.6-5.8,5.8v17.7c0,3.2,2.6,5.8,5.8,5.8c3.2,0,5.8-2.6,5.8-5.8v-17.7
		C202.7,225.4,200.1,222.8,197,222.8z"/>
</g>
<path class="st0" d="M140.2,181.2c-1.8,0-3.7-0.8-4.9-2.4l-49.4-64c-2.1-2.7-1.6-6.6,1.1-8.7c2.7-2.1,6.6-1.6,8.7,1.1l49.4,64
	c2.1,2.7,1.6,6.6-1.1,8.7C142.9,180.8,141.6,181.2,140.2,181.2z"/>
<path class="st0" d="M23.3,258.3c-3.3,0-6-2.5-6.2-5.8c-0.2-3.4,2.4-6.3,5.8-6.5l80.7-4.5c3.4-0.2,6.3,2.4,6.5,5.8
	c0.2,3.4-2.4,6.3-5.8,6.5l-80.7,4.5C23.5,258.3,23.4,258.3,23.3,258.3z"/>
<path class="st0" d="M108.8,210.2c-0.7,0-1.4-0.1-2.1-0.4l-76.2-27.2c-3.2-1.1-4.9-4.7-3.7-7.9c1.1-3.2,4.7-4.9,7.9-3.7l76.2,27.2
	c3.2,1.1,4.9,4.7,3.7,7.9C113.8,208.6,111.4,210.2,108.8,210.2z"/>
<path class="st0" d="M186.6,160.9c-2.7,0-5.2-1.8-6-4.6l-20.4-78.3c-0.9-3.3,1.1-6.7,4.4-7.5c3.3-0.9,6.7,1.1,7.5,4.4l20.4,78.3
	c0.9,3.3-1.1,6.7-4.4,7.5C187.6,160.9,187.1,160.9,186.6,160.9z"/>
</svg>
